<?xml version="1.0" ?><svg viewBox="0 0 60 60" xmlns="http://www.w3.org/2000/svg"><title/><g id="text"><text font-family="MyriadPro-Regular, Myriad Pro" font-size="9" transform="translate(2.4043 67.39014)"><tspan letter-spacing="-0.02599em"/><tspan letter-spacing="-0.00401em" x="4.5542" y="0"/><tspan x="8.85596" y="0"/><tspan letter-spacing="-0.00998em" x="11.83496" y="0"/><tspan x="14.68799" y="0"/><tspan letter-spacing="-0.00298em" x="34.43359" y="0"/><tspan x="38.84375" y="0"/></text></g><g id="colour"><path d="M51,30c-1,6-5,8-13,5,1.87172,16.84544-3.2632,9.16765-4.74929,21.22782A3.17867,3.17867,0,0,1,30.08886,59h-.17771a3.17867,3.17867,0,0,1-3.16185-2.77218C25.2632,44.16765,20.12828,51.84544,22,35c-8,3-12,1-13-5H51Z" fill="#5d4038"/><path d="M47.01732,30C46.33333,34.08333,42,34.82343,38,35c8.25,3.5,12.19086-.1452,13-5Z" fill="#49322e"/><path d="M12.98268,30C13.66667,34.08333,18,34.82343,22,35c-8.25,3.5-12.19086-.1452-13-5Z" fill="#49322e"/></g><g data-name="Layer 1" id="Layer_1"><path d="M51,29.00036H42.3103C52.32666,21.65734,56,9.98638,56,1.00036a1,1,0,0,0-2,0,34.41553,34.41553,0,0,1-.727,6.89282,11.40928,11.40928,0,0,0-2.816-4.59985A.99989.99989,0,0,0,49.043,4.70739a10.35162,10.35162,0,0,1,2.92578,7.82422c0,.00952.00519.0174.00543.02686a33.85354,33.85354,0,0,1-1.45154,3.49377A10.39416,10.39416,0,0,0,47.457,10.29332.99989.99989,0,0,0,46.043,11.70739c1.623,1.623,2.73669,3.65424,2.7644,7.407a29.90475,29.90475,0,0,1-8.32874,8.7569,13.13361,13.13361,0,0,0-.52991-7.18732,1.0001,1.0001,0,1,0-1.89746.63281c.871,2.61285.9176,4.3855.15521,7.68359h-16.413c-.76239-3.2981-.71576-5.07074.15521-7.68359a1.0001,1.0001,0,1,0-1.89746-.63281,13.13361,13.13361,0,0,0-.52991,7.18732,29.93606,29.93606,0,0,1-8.51465-9.06006c.03571-3.68231,1.05841-5.46191,2.70032-7.10382A.99989.99989,0,0,0,12.293,10.29332,10.29142,10.29142,0,0,0,9.31769,15.699a34.01378,34.01378,0,0,1-1.32245-3.222c.00018-.0083.00476-.0152.00476-.02356,0-3.48486.835-5.874,2.707-7.74609A.99989.99989,0,1,0,9.293,3.29332a10.498,10.498,0,0,0-2.6156,4.34076A34.37234,34.37234,0,0,1,6,1.00036a1,1,0,0,0-2,0c0,8.986,3.67334,20.657,13.6897,28H9a.99959.99959,0,0,0-.98633,1.16455c.50342,3.022,1.74854,5.12549,3.70068,6.252,2.20605,1.27344,5.20312,1.28906,9.13135.04248-.81348,8.76807.54053,10.43359,2.09521,12.34717,1.09326,1.34521,2.22363,2.73633,2.81592,7.54395a4.17888,4.17888,0,0,0,4.1543,3.6499h.17773a4.17888,4.17888,0,0,0,4.1543-3.6499c.59229-4.80762,1.72266-6.19873,2.81592-7.54395,1.55469-1.91357,2.90869-3.5791,2.09521-12.34717,3.92871,1.24707,6.92676,1.23193,9.13135-.04248,1.95215-1.12646,3.19727-3.23,3.70068-6.252A.99959.99959,0,0,0,51,29.00036Zm-3.71387,5.68457c-1.90088,1.09814-4.9082.88965-8.93506-.62109a1,1,0,0,0-1.34473,1.04688c1.03467,9.31543-.0835,10.69189-1.49951,12.43457-1.15234,1.418-2.58594,3.18262-3.249,8.561a2.1761,2.1761,0,0,1-2.16895,1.894h-.17773a2.17611,2.17611,0,0,1-2.16895-1.89453c-.66309-5.37793-2.09668-7.14258-3.249-8.56055-1.416-1.74268-2.53418-3.11914-1.49951-12.43457a1.00018,1.00018,0,0,0-1.34473-1.04687c-4.02637,1.50977-7.03271,1.71875-8.93506.62109a5.63748,5.63748,0,0,1-2.47949-3.68457H49.76563A5.63748,5.63748,0,0,1,47.28613,34.68493Z"/></g></svg>