<?xml version="1.0" ?><svg viewBox="0 0 60 60" xmlns="http://www.w3.org/2000/svg"><title/><g id="text"><text font-family="MyriadPro-Regular, Myriad Pro" font-size="9" transform="translate(10.17432 67.39014)"><tspan letter-spacing="0.00401em" x="6.54297" y="0"/><tspan x="9.52197" y="0"/><tspan letter-spacing="-0.03299em" x="12.3208" y="10.7998"/><tspan x="19.6377" y="10.7998"/></text></g><g id="colour"><circle cx="30" cy="30" fill="#455a65" r="29"/><path d="M42.93524,4.04535A28.99545,28.99545,0,0,1,11.0647,51.95459,28.9961,28.9961,0,1,0,42.93524,4.04535Z" fill="#384951"/><path d="M41,29c-6.48,12.95-6.1,23.34-6.02,29.57A29.00888,29.00888,0,0,1,9,50a22.22985,22.22985,0,0,1,8-13H10c0-3.32,3.03-6,8-6,2-5,5-9,13-9,5-9,12-14,9,1C45,18,44,24,41,29Z" fill="#3a3a3a"/><path d="M19.5,34c2-5,5-9,13-9,2.81433-5.06573,6.26208-8.86383,8.2038-8.54193C40.379,10.07715,35.03857,14.73059,31,22c-8,0-11,4-13,9-4.97,0-8,2.68-8,6h2.45612C13.71619,35.20679,16.16931,34,19.5,34Z" fill="#3f3f3f"/><path d="M40,23a18.07094,18.07094,0,0,0-2.06253,3.0625C31.45752,39.01251,29.92,48.77,30,55a47.80359,47.80359,0,0,1-8.68752-1.0625c-3.375-.75-7.1478-1.20087-12.04862-4.99506C9.17358,49.295,9.07068,49.64673,9,50a29.00888,29.00888,0,0,0,25.98,8.57C34.9,52.34,34.52,41.95,41,29,44,24,45,18,40,23Z" fill="#2d2d2d"/></g><g data-name="Layer 1" id="Layer_1"><path d="M30,.00036a30,30,0,1,0,30,30A30.03406,30.03406,0,0,0,30,.00036ZM10.10877,49.68377a21.20947,21.20947,0,0,1,7.49084-11.88361A.99988.99988,0,0,0,17,36.00036H11.11719c.57715-2.39893,3.24609-4,6.88281-4a1.00074,1.00074,0,0,0,.92871-.62842C20.93848,26.347,23.76074,23.00036,31,23.00036a.99894.99894,0,0,0,.874-.51416c3.28125-5.90576,6.38477-8.33105,7.21777-8.02832.01465.00537,1.46973.63574-.07227,8.34619a.99985.99985,0,0,0,1.6875.90332,8.21923,8.21923,0,0,1,1.80176-1.47559,15.42545,15.42545,0,0,1-2.40332,6.32129c-6.373,12.74658-6.22559,21.60645-6.12793,27.46875.01.59265.01666,1.14624.01917,1.68866a27.90935,27.90935,0,0,1-23.88794-8.02673Zm25.884,7.66412c-.004-.44476-.00726-.88251-.0152-1.35925-.10059-6.00635-.2373-14.23242,5.87988-26.47363,1.49414-2.48975,3.82031-7.5874,1.93164-9.062a2.048,2.048,0,0,0-2.34668.08643c.68164-4.74707.13965-7.29687-1.66113-7.959-2.77441-1.02-6.71,3.79248-9.36914,8.42725-8.06152.20166-11.20117,4.55811-13.08887,9.00879C12.38867,30.25084,9,33.05651,9,37.00036a.99974.99974,0,0,0,1,1h4.335A23.8973,23.8973,0,0,0,8.4978,47.91161a27.98986,27.98986,0,1,1,27.49493,9.43628Z"/></g></svg>